<ttFont>
<head>
    <!-- Most of this table will be recalculated by the compiler -->
    <tableVersion value="1.0"/>
    <fontRevision value="0.84999"/>
    <checkSumAdjustment value="0xc6762f10"/>
    <magicNumber value="0x5f0f3cf5"/>
    <flags value="00000000 00000011"/>
    <unitsPerEm value="1000"/>
    <created value="Wed Sep  1 18:35:57 2021"/>
    <modified value="Wed Sep  1 18:35:57 2021"/>
    <xMin value="-136"/>
    <yMin value="-216"/>
    <xMax value="672"/>
    <yMax value="1024"/>
    <macStyle value="00000000 00000000"/>
    <lowestRecPPEM value="7"/>
    <fontDirectionHint value="2"/>
    <indexToLocFormat value="0"/>
    <glyphDataFormat value="0"/>
  </head>
          <CharString index="0">
            800 rmoveto
            return
          </CharString>
          <CharString index="1">
            vstem
            350 return
          </CharString>
          <CharString index="2">
            848 rmoveto
            return
          </CharString>
          <CharString index="3">
            598 rmoveto
            -90 return
          </CharString>
          <CharString index="4">
            53 30 31 55 55 -30 31 -53 return
          </CharString>
          <CharString index="5">
            300 100 vstem
            return
          </CharString>
          <CharString index="6">
            87 186 87 hstem
            90 520 vstem
            90 return
          </CharString>
          <CharString index="7">
            84 44 84 hstem
            80 540 vstem
            472 return
          </CharString>
          <CharString index="8">
            0 90 418 90 return
          </CharString>
          <CharString index="9">
            848 -20 hstem
            return
          </CharString>
          <CharString index="10">
            rmoveto
            9 9 1 2 8 hvcurveto
            -12 -64 -39 -55 -70 -54 rrcurveto
            -63 callsubr
            vhcurveto
            return
          </CharString>
          <CharString index="11">
            rmoveto
            -103 callsubr
            -53 -30 -31 -55 -55 30 -31 53 hvcurveto
            return
          </CharString>
          <CharString index="12">
            rmoveto
            -55 callsubr
            return
          </CharString>
          <CharString index="13">
            12 64 39 55 70 54 rrcurveto
            -126 hlineto
            -42 -62 -19 -73 -95 vvcurveto
            return
          </CharString>
          <CharString index="14">
            -182 -90 460 90 -182 return
          </CharString>
          <CharString index="15">
            464 hstem
            118 464 vstem
            524 return
          </CharString>
          <CharString index="16">
            rmoveto
            514 88 -514 hlineto
            return
          </CharString>
          <CharString index="17">
            194 204 rmoveto
            -102 hlineto
            return
          </CharString>
          <CharString index="18">
            -219 -59 -103 -127 return
          </CharString>
          <CharString index="19">
            0 96 608 96 hstem
            return
          </CharString>
          <CharString index="20">
            rmoveto
            143 61 82 104 return
          </CharString>
          <CharString index="21">
            175 75 175 vstem
            return
          </CharString>
          <CharString index="22">
            21 -21 800 -20 hstem
            return
          </CharString>
          <CharString index="23">
            598 rmoveto
            -598 96 return
          </CharString>
          <CharString index="24">
            -15 90 448 90 hstem
            return
          </CharString>
          <CharString index="25">
            hlineto
            -40 -206 rlineto
            return
          </CharString>
          <CharString index="26">
            175 vstem
            350 return
          </CharString>
          <CharString index="27">
            -72 callsubr
            -392 -197 rmoveto
            -51 callsubr
            -66 callsubr
            endchar
          </CharString>
          <CharString index="28">
            -97 callsubr
            155 -170 rmoveto
            -69 callsubr
            -34 callsubr
          </CharString>
          <CharString index="29">
            -83 callsubr
            84 96 340 96 -106 callsubr
            -15 rmoveto
            164 102 120 195 193 -102 120 -164 -164 -102 -120 -193 -195 102 -120 164 hvcurveto
            -170 315 rmoveto
            141 62 82 108 108 62 -82 -141 -143 -62 -82 -108 -108 -62 82 143 vhcurveto
            endchar
          </CharString>
          <CharString index="30">
            -15 93 644 93 hstem
            65 99 372 99 -106 callsubr
            -15 rmoveto
            190 95 138 277 -54 callsubr
            -277 95 -138 190 hvcurveto
            -186 415 rmoveto
            219 59 103 127 return
          </CharString>
          <CharString index="31">
            rmoveto
            259 hlineto
            -86 -186 rlineto
            -173 -87 132 hlineto
            -75 -160 rlineto
            88 hlineto
            75 160 rlineto
            300 87 -259 hlineto
            86 186 rlineto
            173 87 -132 hlineto
            75 160 rlineto
            -88 hlineto
            -75 -160 rlineto
            -300 hlineto
            endchar
          </CharString>
          <CharString index="32">
            -91 callsubr
            183 -241 -95 callsubr
            393 vmoveto
            -55 callsubr
            endchar
          </CharString>
          <CharString index="33">
            -8 -27 callsubr
            -81 callsubr
            -8 -97 callsubr
            endchar
          </CharString>
          <CharString index="34">
            -72 callsubr
            endchar
          </CharString>
          <CharString index="35">
            rmoveto
            -66 callsubr
            -51 callsubr
            return
          </CharString>
          <CharString index="36">
            -96 callsubr
            -83 528 rmoveto
            -55 30 -31 53 -103 callsubr
            -53 -30 -31 -55 vhcurveto
            endchar
          </CharString>
          <CharString index="37">
            rmoveto
            58 58 -174 174 174 174 -58 58 -174 -174 -174 174 -58 -58 174 -174 -174 -174 58 -58 174 174 rlineto
            endchar
          </CharString>
          <CharString index="38">
            -63 callsubr
            9 9 1 2 8 vhcurveto
            return
          </CharString>
          <CharString index="39">
            rmoveto
            140 vlineto
            -460 241 rlineto
            -100 vlineto
            401 -206 rlineto
            -10 vlineto
            -401 -206 rlineto
            -100 vlineto
            endchar
          </CharString>
          <CharString index="40">
            rmoveto
            -140 vlineto
            460 -241 rlineto
            100 vlineto
            -401 206 rlineto
            10 vlineto
            401 206 rlineto
            100 vlineto
            endchar
          </CharString>
          <CharString index="41">
            81 55 60 103 12 hvcurveto
            -81 hlineto
            -50 -7 -24 -29 -35 -80 -39 128 -126 hhcurveto
            -81 -55 -60 -103 -12 hvcurveto
            return
          </CharString>
          <CharString index="42">
            -87 callsubr
            -39 callsubr
            -104 -61 83 143 vhcurveto
            endchar
          </CharString>
          <CharString index="43">
            -15 83 189 83 120 83 189 83 -46 callsubr
            return
          </CharString>
          <CharString index="44">
            126 hlineto
            42 62 19 73 95 vvcurveto
            76 -29 36 -63 -53 -30 -31 -55 -55 30 -31 53 return
          </CharString>
          <CharString index="45">
            -89 vlineto
            -140 -20 -86 -116 -178 vvcurveto
            -178 86 -114 140 -17 vhcurveto
            return
          </CharString>
          <CharString index="46">
            rmoveto
            -47 29 -27 50 50 29 27 47 48 -29 26 -50 -50 -29 -26 -48 vhcurveto
            endchar
          </CharString>
          <CharString index="47">
            356 88 hstem
            93 514 vstem
            93 356 -91 callsubr
            endchar
          </CharString>
          <CharString index="48">
            306 88 hstem
            93 514 vstem
            93 306 -91 callsubr
            endchar
          </CharString>
          <CharString index="49">
            87 vlineto
            134 13 83 88 133 vvcurveto
            130 -70 74 -140 19 vhcurveto
            return
          </CharString>
          <CharString index="50">
            -87 vlineto
            -138 -13 -85 -89 -134 vvcurveto
            -130 69 -74 141 -19 vhcurveto
            return
          </CharString>
          <CharString index="51">
            rmoveto
            520 87 -520 hlineto
            -360 vmoveto
            520 87 -520 hlineto
            endchar
          </CharString>
          <CharString index="52">
            -47 30 -29 44 44 30 29 47 48 -30 29 -44 -44 -30 -29 -48 vhcurveto
            return
          </CharString>
          <CharString index="53">
            277 -95 138 -190 -190 -95 -138 -277 return
          </CharString>
          <CharString index="54">
            153 76 88 76 153 hstem
            276 148 vstem
            93 return
          </CharString>
          <CharString index="55">
            172 270 -41 callsubr
            return
          </CharString>
          <CharString index="56">
            81 hlineto
            50 7 24 29 35 80 39 -128 126 hhcurveto
            return
          </CharString>
          <CharString index="57">
            -105 callsubr
            -40 callsubr
            return
          </CharString>
          <CharString index="58">
            -179 -21 185 88 451 89 -15 -20 hstemhm
            return
          </CharString>
          <CharString index="59">
            45 25 31 55 55 -25 31 -45 -45 -25 -31 -55 return
          </CharString>
          <CharString index="60">
            -82 callsubr
            80 hlineto
            40 206 rlineto
            return
          </CharString>
          <CharString index="61">
            hstemhm
            65 85 123 85 -16 85 123 85 return
          </CharString>
          <CharString index="62">
            117 14 80 83 11 128 rrcurveto
            -92 hlineto
            return
          </CharString>
          <CharString index="63">
            -39 callsubr
            hvcurveto
            return
          </CharString>
          <CharString index="64">
            -15 88 -52 -21 524 89 235 -20 hstemhm
            return
          </CharString>
          <CharString index="65">
            rlineto
            -110 hlineto
            -190 -354 rlineto
            endchar
          </CharString>
          <CharString index="66">
            -27 callsubr
            166 -106 callsubr
            return
          </CharString>
          <CharString index="67">
            18 -382 rlineto
            74 hlineto
            18 382 rlineto
            return
          </CharString>
          <CharString index="68">
            104 61 -82 -143 -143 -61 -83 -104 return
          </CharString>
          <CharString index="69">
            -147 83 -83 1054 -83 83 hstemhm
            return
          </CharString>
          <CharString index="70">
            -98 callsubr
            129 442 vstem
            return
          </CharString>
          <CharString index="71">
            622 hstem
            521 59 vstem
            580 return
          </CharString>
          <CharString index="72">
            622 hstem
            120 59 vstem
            120 return
          </CharString>
          <CharString index="73">
            -12 -64 -39 -55 -70 -54 rrcurveto
            endchar
          </CharString>
          <CharString index="74">
            40 22 -33 -61 -62 -22 -33 -40 return
          </CharString>
          <CharString index="75">
            103 57 -48 -95 10 hvcurveto
            100 hlineto
            return
          </CharString>
          <CharString index="76">
            rmoveto
            -86 550 86 vlineto
            endchar
          </CharString>
          <CharString index="77">
            rmoveto
            -86 610 86 vlineto
            endchar
          </CharString>
          <CharString index="78">
            -104 -61 83 143 hvcurveto
            endchar
          </CharString>
          <CharString index="79">
            367 96 -467 hlineto
            endchar
          </CharString>
          <CharString index="80">
            172 hstem
            267 return
          </CharString>
        <CharString name=".notdef">
          418 -200 72 35 49 35 24 35 49 35 63 35 25 59 23 35 25 34 39 -28 28 35 28 36 38 35 28 34 39 35 70 hstemhm
          98 77 -77 78 -78 147 -147 217 -105 35 -35 221 -151 35 -35 151 -81 81 hintmask 111111111011111100010101
          431 850 rmoveto
          -333 -1050 333 hlineto
          -256 72 rmoveto
          35 vlineto
          74 49 rlineto
          -74 35 175 -35 -34 hlineto
          -73 -49 rlineto
          107 -35 hlineto
          -175 143 rmoveto
          119 175 -119 vlineto
          -175 182 rmoveto
          119 35 -84 105 49 vlineto
          hintmask 000001100000000001000010
          -35 -24 -35 59 hlineto
          hintmask 000010110100000100000101
          105 -119 hlineto
          -175 142 rmoveto
          35 140 70 35 -105 vlineto
          -175 60 rmoveto
          hintmask 000000011011110100000101
          34 70 39 -70 35 175 -35 -70 -73 vlineto
          -105 136 rmoveto
          109 105 -73 70 -36 vlineto
          -175 137 rmoveto
          34 vlineto
          hintmask 000000000000111010000001
          70 39 -69 35 174 -35 -70 -39 70 -34 hlineto
          hintmask 000100000000000000001000
          -140 -622 rmoveto
          hintmask 000100000000000000100000
          105 49 hlineto
          hintmask 000100000000000000001000
          -105 hlineto
          hintmask 000000000001000000010000
          472 vmoveto
          hintmask 000000000001000001000000
          35 38 hlineto
          hintmask 000000000001000000010000
          -35 hlineto
          endchar
        </CharString>
        <CharString name="A">
          21 -21 282 94 359 65 hstem
          59 582 vstem
          536 hmoveto
          105 hlineto
          -209 800 rlineto
          -164 hlineto
          -209 -800 rlineto
          100 hlineto
          72 282 rlineto
          233 hlineto
          -209 94 rmoveto
          93 359 92 -359 rlineto
          endchar
        </CharString>
        <CharString name="B">
          0 96 259 93 256 96 hstemhm
          120 100 303 98 -92 98 hintmask 11110100
          365 -107 callsubr
          -245 -800 239 hlineto
          hintmask 11111000
          166 96 79 138 97 -49 60 -91 13 hvcurveto
          28 vlineto
          hintmask 11110100
          95 13 51 60 96 vvcurveto
          137 -97 79 -165 vhcurveto
          -145 -704 rmoveto
          hintmask 11111000
          259 139 vlineto
          107 57 -45 -85 -84 -57 -45 -107 hvcurveto
          -139 352 rmoveto
          256 145 vlineto
          hintmask 11110100
          106 58 -44 -84 -84 -58 -44 -106 hvcurveto
          endchar
        </CharString>
        <CharString name="C">
          -15 95 640 95 hstem
          87 100 vstem
          364 -15 rmoveto
          151 90 94 182 20 hvcurveto
          -98 hlineto
          -123 -16 -52 -58 -95 hhcurveto
          -121 -56 102 218 218 59 102 127 98 54 -63 -133 15 hvcurveto
          98 hlineto
          191 -19 -92 100 -154 hhcurveto
          -188 -98 -139 -276 -276 95 -139 182 hvcurveto
          endchar
        </CharString>
        <CharString name="D">
          -88 callsubr
          100 100 323 100 vstem
          100 hmoveto
          202 hlineto
          213 108 134 266 266 -108 134 -213 hvcurveto
          -202 hlineto
          100 -704 rmoveto
          608 102 vlineto
          146 75 -103 -201 -201 -75 -103 -146 hvcurveto
          endchar
        </CharString>
        <CharString name="E">
          0 96 261 92 255 96 hstem
          142 100 vstem
          142 hmoveto
          447 96 -347 261 310 92 -310 255 -28 callsubr
        </CharString>
        <CharString name="Euro">
          -15 95 202 81 90 81 186 95 hstem
          133 98 316 96 vstem
          393 -15 rmoveto
          135 83 89 166 16 hvcurveto
          -97 hlineto
          -109 -13 -44 -51 -80 hhcurveto
          -88 -51 65 137 -17 hvcurveto
          224 81 -229 hlineto
          -1 37 rlineto
          18 0 18 1 17 vhcurveto
          229 81 -221 hlineto
          126 19 51 60 86 hhcurveto
          90 48 -58 -122 13 hvcurveto
          96 hlineto
          179 -14 -86 96 -147 hhcurveto
          -143 -86 -94 -187 -26 hvcurveto
          -101 -81 94 hlineto
          -1 -17 0 -18 -18 vvcurveto
          -13 0 -12 1 -12 vhcurveto
          -94 -81 99 hlineto
          -198 23 86 -99 145 hhcurveto
          endchar
        </CharString>
        <CharString name="F">
          21 -21 343 96 265 96 hstem
          160 100 vstem
          160 hmoveto
          100 343 320 96 -320 265 -28 callsubr
        </CharString>
        <CharString name="G">
          -15 92 -56 -21 298 96 326 95 hstemhm
          77 100 341 86 -83 83 hintmask 10111100
          335 -15 rmoveto
          80 52 35 72 23 hvcurveto
          hintmask 01111100
          28 -92 86 394 -263 -96 hlineto
          hintmask 10111010
          180 hlineto
          -150 -15 -51 -71 -94 hhcurveto
          -124 -60 104 219 218 61 102 129 96 52 -57 -119 15 hvcurveto
          98 hlineto
          178 -19 -90 93 -152 hhcurveto
          -190 -100 -140 -275 hvcurveto
          hintmask 10111100
          -275 96 -140 162 vhcurveto
          endchar
        </CharString>
        <CharString name="H">
          21 -21 356 94 350 -20 hstem
          100 100 -102 callsubr
          100 -107 callsubr
          -800 100 356 300 -356 100 800 -100 -350 -300 350 vlineto
          endchar
        </CharString>
        <CharString name="I">
          -88 callsubr
          -102 callsubr
          120 hmoveto
          460 96 -180 608 180 96 -460 -96 180 -608 -180 hlineto
          endchar
        </CharString>
        <CharString name="J">
          -15 96 623 96 hstem
          101 98 274 100 vstem
          336 -15 rmoveto
          149 88 92 154 hvcurveto
          569 -418 -96 318 -473 vlineto
          -96 -49 -54 -88 -88 -49 54 96 vhcurveto
          119 -98 -119 vlineto
          -154 89 -92 146 vhcurveto
          endchar
        </CharString>
        <CharString name="K">
          -85 callsubr
          139 99 vstem
          139 -107 callsubr
          -800 99 349 vlineto
          286 -349 rlineto
          126 hlineto
          -323 390 338 410 rlineto
          -121 hlineto
          -306 -375 rlineto
          375 vlineto
          endchar
        </CharString>
        <CharString name="L">
          0 96 704 -20 hstem
          177 100 vstem
          177 hmoveto
          449 96 -349 704 -100 hlineto
          endchar
        </CharString>
        <CharString name="M">
          21 -21 274 58 392 76 hstem
          78 96 352 96 vstem
          78 hmoveto
          96 515 hlineto
          -7 209 rlineto
          10 hlineto
          102 -450 rlineto
          142 hlineto
          102 450 rlineto
          10 hlineto
          -7 -209 rlineto
          -515 96 800 -162 vlineto
          -103 -468 rlineto
          -9 hlineto
          -103 468 rlineto
          -167 hlineto
          endchar
        </CharString>
        <CharString name="N">
          0 68 664 68 hstem
          100 100 -102 callsubr
          100 hmoveto
          100 532 hlineto
          -6 200 rlineto
          9 hlineto
          217 -732 rlineto
          180 800 -100 -531 hlineto
          6 -201 rlineto
          -9 hlineto
          -217 732 rlineto
          -180 hlineto
          endchar
        </CharString>
        <CharString name="O">
          -77 callsubr
          127 59 -103 -219 -89 callsubr
          -127 -59 103 219 vhcurveto
          endchar
        </CharString>
        <CharString name="P">
          21 -21 336 92 276 96 hstem
          137 100 313 100 vstem
          137 hmoveto
          100 336 166 hlineto
          153 94 87 144 145 -94 88 -153 hvcurveto
          -266 hlineto
          100 -372 rmoveto
          276 170 vlineto
          89 54 -52 -86 -86 -54 -52 -89 hvcurveto
          endchar
        </CharString>
        <CharString name="Q">
          -194 -21 201 92 644 93 hstem
          65 99 168 39 165 99 -106 callsubr
          78 rmoveto
          -127 -59 103 219 219 59 103 127 127 59 -103 -219 -89 callsubr
          hvcurveto
          -285 322 rmoveto
          -268 89 -138 178 -9 vhcurveto
          -77 vlineto
          273 -123 rlineto
          95 vlineto
          -234 106 rlineto
          176 9 88 138 267 vvcurveto
          -54 callsubr
          vhcurveto
          endchar
        </CharString>
        <CharString name="R">
          21 -21 348 89 267 96 hstem
          121 100 314 100 vstem
          121 hmoveto
          100 348 109 hlineto
          206 -348 rlineto
          116 hlineto
          -216 352 rlineto
          124 17 75 80 122 vvcurveto
          142 -97 87 -156 vhcurveto
          -261 hlineto
          100 -363 rmoveto
          267 164 vlineto
          95 55 -49 -84 -85 -55 -49 -95 hvcurveto
          endchar
        </CharString>
        <CharString name="S">
          -15 96 267.5 101 269.5 96 hstemhm
          101 100 312 100 -81 100 hintmask 11111000
          -90 callsubr
          -143 15 95 -76 158 hhcurveto
          155 98 91 145 130 -70 74 -140 19 hvcurveto
          -82 11 rlineto
          -82 11 -38 39 72 vvcurveto
          90 60 52 101 vhcurveto
          hintmask 11110100
          -32 callsubr
          154 -13 -96 85 -161 hhcurveto
          -160 -101 -92 -146 -130 69 -74 141 -19 hvcurveto
          82 -11 rlineto
          hintmask 11111000
          82 -11 38 -39 -72 vvcurveto
          -89 -57 -51 -96 -100 -56 41 82 -10 vhcurveto
          endchar
        </CharString>
        <CharString name="T">
          21 -21 704 96 hstem
          -102 callsubr
          300 hmoveto
          100 704 220 96 -540 -96 220 hlineto
          endchar
        </CharString>
        <CharString name="U">
          -15 96 719 -20 hstem
          91 100 318 100 vstem
          91 -107 callsubr
          -542 vlineto
          -171 97 -102 162 162 97 102 171 vhcurveto
          542 -100 -542 vlineto
          -114 -57 -63 -102 -102 -57 63 114 vhcurveto
          542 vlineto
          endchar
        </CharString>
        <CharString name="V">
          0 65 735 -20 hstem
          59 582 vstem
          164 -107 callsubr
          -105 hlineto
          209 -800 rlineto
          164 hlineto
          209 800 rlineto
          -100 hlineto
          -188 -735 rlineto
          endchar
        </CharString>
        <CharString name="W">
          0 119 -119 120 -99 -21 497 101 0 -20 222 -20 hstemhm
          28 644 hintmask 00101110
          135 800 rmoveto
          -107 hlineto
          106 -800 rlineto
          143 hlineto
          hintmask 00110110
          74 497 72 -497 rlineto
          143 hlineto
          106 800 rlineto
          -102 hlineto
          hintmask 01001110
          -79 -680 -68 478 rlineto
          -139 hlineto
          hintmask 10001110
          -71 -479 rlineto
          endchar
        </CharString>
        <CharString name="X">
          -85 callsubr
          59 582 vstem
          174 -107 callsubr
          -115 hlineto
          209 -414 -195 -386 rlineto
          113 hlineto
          164 336 160 -336 rlineto
          117 hlineto
          -194 386 208 414 rlineto
          -110 hlineto
          -181 -365 rlineto
          endchar
        </CharString>
        <CharString name="Y">
          -85 callsubr
          -102 callsubr
          161 -107 callsubr
          -112 hlineto
          251 -454 rlineto
          -346 100 346 vlineto
          251 454 -42 callsubr
        </CharString>
        <CharString name="Z">
          -88 callsubr
          108 60 364 60 vstem
          108 hmoveto
          484 96 -424 hlineto
          424 534 rlineto
          170 -484 -96 424 vlineto
          -424 -534 rlineto
          endchar
        </CharString>
        <CharString name="_part.multiply">
          118 -92 callsubr
          118 rmoveto
          58 58 -406 406 -58 -58 rlineto
          endchar
        </CharString>
        <CharString name="a">
          -15 87 -51 -21 523 90 hstemhm
          107 99 265 96 hintmask 10111000
          76 393 rmoveto
          99 hlineto
          82 10 59 48 93 hhcurveto
          87 47 -46 -85 hvcurveto
          -25 vlineto
          -187 -30 rlineto
          -114 -20 -63 -65 -98 vvcurveto
          -104 70 -65 110 76 58 31 55 22 vhcurveto
          hintmask 01111000
          28 -71 96 409 hlineto
          130 -84 74 -146 vhcurveto
          hintmask 10111000
          -148 -100 -84 -136 -13 hvcurveto
          130 -235 rmoveto
          51 34 33 61 10 vhcurveto
          170 28 rlineto
          -38 vlineto
          -97 -70 -73 -92 -66 -37 31 55 vhcurveto
          endchar
        </CharString>
        <CharString name="ampersand">
          -15 96 638 96 hstemhm
          90 102 -38 99 126 99 18 96 hintmask 11100100
          90 196 rmoveto
          -127 83 -84 125 90 71 41 79 50 vhcurveto
          101 -128 rlineto
          142 vlineto
          -59 76 20 58 14 69 7 81 rlinecurve
          -96 hlineto
          -3 -44 -5 -39 -7 -36 -117 150 rcurveline
          hintmask 11011100
          61 53 53 60 95 vvcurveto
          107 -61 66 -100 -101 -62 -66 -109 -60 25 -58 60 -75 vhcurveto
          hintmask 11100100
          -74 -59 -75 -68 -124 vvcurveto
          102 3 rmoveto
          77 47 51 56 49 vhcurveto
          152 -193 rlineto
          -68 -33 -49 -34 -64 hhcurveto
          -66 -43 47 71 hvcurveto
          hintmask 11011100
          61 438 rmoveto
          51 25 31 39 38 24 -30 -50 -56 -30 -41 -41 -37 vhcurveto
          -7 9 rlineto
          -34 42 -14 37 44 vvcurveto
          endchar
        </CharString>
        <CharString name="approxequal">
          121 84 44 84 34 -100 callsubr
          367 -80 callsubr
        </CharString>
        <CharString name="approxequal.case">
          171 84 44 84 34 -100 callsubr
          417 -80 callsubr
        </CharString>
        <CharString name="asciicircum">
          758 57 hstem
          125 450 vstem
          125 517 rmoveto
          95 hlineto
          130 241 130 -241 rlineto
          95 hlineto
          -166 298 rlineto
          -118 hlineto
          endchar
        </CharString>
        <CharString name="asciitilde">
          244 -100 callsubr
          244 -73 callsubr
        </CharString>
        <CharString name="asciitilde.case">
          294 -100 callsubr
          294 -73 callsubr
        </CharString>
        <CharString name="asterisk">
          599 -20 236 -20 hstem
          305.5 89 vstem
          298 815 rmoveto
          15 -190 -176 73 -32 -99 185 -44 -124 -146 84 -61 100 163 100 -163 84 61 -124 146 185 44 -32 99 -176 -73 15 190 rlineto
          endchar
        </CharString>
        <CharString name="at">
          -132 73 155 77 -62 62 334 7 -7 77 156 75 hstemhm
          66 79 121 79 197 77 -73 73 -69 69 hintmask 1100111101000000
          377 -132 rmoveto
          62 49 12 25 34 hvcurveto
          72 vlineto
          -24 -34 -49 -12 -62 hhcurveto
          -154 -78 133 266 266 77 134 152 hvcurveto
          hintmask 1101011110000000
          112 56 -74 -148 hvcurveto
          -4 -28 vlineto
          hintmask 1100111100100000
          47 -12 -32 23 -51 hhcurveto
          -102 -51 -81 -163 -163 51 -81 102 57 34 23 47 12 hvcurveto
          hintmask 1010111100100000
          28 -55 hlineto
          hintmask 1010111101000000
          69 407 hlineto
          198 -82 99 -163 -205 -103 -158 -317 vhcurveto
          hintmask 1100111101000000
          -315 104 -157 207 vhcurveto
          -32 472 rmoveto
          112 34 55 67 67 33 -55 -112 -112 -33 -55 -67 -67 -34 55 112 vhcurveto
          endchar
        </CharString>
        <CharString name="b">
          -43 callsubr
          113 91 -91 96 325 98 hintmask 10110110
          396 -15 rmoveto
          145 91 120 194 194 -91 120 -145 -82 -57 -36 -64 -20 hvcurveto
          -28 335 -96 hlineto
          hintmask 01110110
          -848 96 vlineto
          hintmask 10110110
          85 28 vlineto
          -64 20 57 -36 82 hhcurveto
          hintmask 10111010
          -192 314 -65 callsubr
        </CharString>
        <CharString name="backslash">
          -37 callsubr
          129 -105 callsubr
          347 -1018 rlineto
          95 hlineto
          -347 1018 rlineto
          endchar
        </CharString>
        <CharString name="bar">
          860 -20 hstem
          309 82 vstem
          391 860 rmoveto
          -82 -920 82 hlineto
          endchar
        </CharString>
        <CharString name="braceleft">
          -38 callsubr
          250 62 12 88 -68 88 hintmask 00101000
          537 824 rmoveto
          83 vlineto
          -129 -9 -84 -77 -108 vvcurveto
          hintmask 01010100
          -52 20 -54 -55 vvcurveto
          -84 -29 -38 -65 1 vhcurveto
          -102 vlineto
          65 1 29 -38 -84 -55 -20 -54 -52 vvcurveto
          hintmask 10001000
          -108 84 -77 129 -9 vhcurveto
          83 vlineto
          -79 7 -46 38 58 62 20 65 62 vvcurveto
          hintmask 01010100
          88 -39 47 -81 10 vhcurveto
          14 vlineto
          81 10 39 47 88 62 -20 65 62 vvcurveto
          hintmask 00101000
          58 46 38 79 7 vhcurveto
          endchar
        </CharString>
        <CharString name="braceright">
          -38 callsubr
          268 88 -68 88 12 62 hintmask 00101000
          163 907 rmoveto
          -83 vlineto
          79 -7 46 -38 -58 -62 -20 -65 -62 vvcurveto
          hintmask 01010100
          -88 39 -47 81 -10 vhcurveto
          -14 vlineto
          -81 -10 -39 -47 -88 -62 20 -65 -62 vvcurveto
          hintmask 10001000
          -58 -46 -38 -79 -7 vhcurveto
          -83 vlineto
          129 9 84 77 108 vvcurveto
          hintmask 01010100
          52 -20 54 55 vvcurveto
          84 29 38 65 -1 vhcurveto
          102 vlineto
          -65 -1 -29 38 84 55 20 54 52 vvcurveto
          hintmask 00101000
          108 -84 77 -129 9 vhcurveto
          endchar
        </CharString>
        <CharString name="bracketleft">
          -138 82 872 82 hstemhm
          312 85 -85 225 hintmask 11010000
          537 898 rmoveto
          hintmask 11100000
          -225 -1036 hlineto
          hintmask 11010000
          225 82 hlineto
          hintmask 11100000
          -140 872 hlineto
          hintmask 11010000
          140 hlineto
          endchar
        </CharString>
        <CharString name="bracketright">
          -138 82 872 82 hstemhm
          163 225 -85 85 hintmask 11100000
          163 898 rmoveto
          -82 vlineto
          hintmask 11010000
          140 -872 hlineto
          hintmask 11100000
          -140 -82 hlineto
          hintmask 11010000
          225 1036 hlineto
          endchar
        </CharString>
        <CharString name="bullet">
          168 364 hstem
          168 364 -106 callsubr
          168 rmoveto
          117 65 65 117 117 -65 65 -117 -117 -65 -65 -117 -117 65 -65 117 hvcurveto
          endchar
        </CharString>
        <CharString name="c">
          -83 callsubr
          100 96 vstem
          363 -15 rmoveto
          136 95 87 140 12 hvcurveto
          -92 hlineto
          -87 -12 -55 -50 -84 hhcurveto
          -106 -61 80 141 144 63 83 109 90 58 -57 -98 11 hvcurveto
          92 hlineto
          150 -11 -96 95 -141 hhcurveto
          -167 -104 -121 -196 -193 101 -118 162 hvcurveto
          endchar
        </CharString>
        <CharString name="cent">
          8 -21 623 -20 22 -20 hstemhm
          100 96 130 72 116 92 -79 92 hintmask 10111100
          326 -101 rmoveto
          72 88 hlineto
          -45 callsubr
          -10 -74 -42 -48 -64 -12 rrcurveto
          443 vlineto
          hintmask 10111010
          73 -12 46 -54 10 -87 rrcurveto
          92 hlineto
          -10 140 -85 92 -126 12 rrcurveto
          hintmask 11011100
          87 -72 -62 callsubr
          -130 309 rmoveto
          124 47 79 83 19 vhcurveto
          -439 vlineto
          -83 17 -47 76 124 vvcurveto
          endchar
        </CharString>
        <CharString name="cent.bold">
          -101 176 -88 88 -67 -21 536 87 -87 176 -89 -20 22 -20 hstemhm
          100 96 130 72 hintmask 0010100110000000
          326 699 rmoveto
          hintmask 0010010110000000
          -62 callsubr
          hintmask 1000001110000000
          -88 72 vlineto
          hintmask 0010001110000000
          88 vlineto
          -45 callsubr
          hintmask 0101000110000000
          -87 -12 -55 -50 -84 hhcurveto
          -106 -61 80 141 144 63 83 109 90 58 -57 -98 11 hvcurveto
          92 hlineto
          hintmask 0010001110000000
          -10 140 -85 92 -126 12 rrcurveto
          hintmask 0010100110000000
          87 vlineto
          endchar
        </CharString>
        <CharString name="colon">
          -8 -52 callsubr
          -8 -71 callsubr
        </CharString>
        <CharString name="colon.case">
          93 -52 callsubr
          93 -71 callsubr
        </CharString>
        <CharString name="comma">
          -74 callsubr
        </CharString>
        <CharString name="copyright">
          100 57 91 56 195 56 88 57 hstem
          65 57 92 57 307 57 -106 callsubr
          100 rmoveto
          163 122 128 172 172 -122 128 -163 -163 -122 -128 -172 -172 122 -128 163 hvcurveto
          -228 300 rmoveto
          143 94 100 134 134 94 -100 -143 -143 -94 -100 -134 -134 -94 100 143 vhcurveto
          92 hmoveto
          -88 57 -64 81 67 51 47 67 6 vhcurveto
          -59 hlineto
          -35 -4 -25 -23 -36 hhcurveto
          -48 -33 39 57 61 31 38 51 40 29 -27 -42 7 hvcurveto
          59 hlineto
          76 -10 -53 49 -72 hhcurveto
          -84 -55 -62 -93 hvcurveto
          endchar
        </CharString>
        <CharString name="currency">
          140 79 262 79 41 -20 hstem
          140 79 262 79 -106 callsubr
          140 rmoveto
          45 43 14 25 34 hvcurveto
          80 -80 49 49 -80 80 rlineto
          25 34 14 43 45 vvcurveto
          45 -14 43 -25 34 vhcurveto
          80 80 -49 49 -80 -80 rlineto
          25 -34 -43 14 -45 hhcurveto
          -45 -43 -14 -25 -34 hvcurveto
          -80 80 -49 -49 80 -80 rlineto
          -25 -34 -14 -43 -45 vvcurveto
          -45 14 -43 25 -34 vhcurveto
          -80 -80 49 -49 80 80 rlineto
          -25 34 43 -14 45 hhcurveto
          -131 210 rmoveto
          72 59 59 72 72 59 -59 -72 -72 -59 -59 -72 -72 -59 59 72 vhcurveto
          endchar
        </CharString>
        <CharString name="d">
          -43 callsubr
          68 98 325 96 -91 91 hintmask 10111100
          304 -15 rmoveto
          82 57 36 64 20 hvcurveto
          hintmask 01111100
          28 -85 96 848 -96 -335 -28 hlineto
          64 -20 -57 36 -82 hhcurveto
          -145 -91 -120 -194 hvcurveto
          hintmask 10111100
          -194 91 -120 145 vhcurveto
          -138 314 -87 callsubr
          vhcurveto
          hintmask 10111010
          -44 callsubr
          hintmask 10111100
          -29 callsubr
        </CharString>
        <CharString name="divide">
          77 -53 callsubr
          306 -75 callsubr
        </CharString>
        <CharString name="divide.case">
          127 -53 callsubr
          356 -75 callsubr
        </CharString>
        <CharString name="dollar">
          7 -21 22 -21 826 -20 21 -20 hstemhm
          101 100 123 72 117 100 -81 100 hintmask 01011110
          -90 callsubr
          hintmask 10011110
          14 -132 82 -75 136 -11 rrcurveto
          hintmask 01011110
          -86 72 -58 callsubr
          -7 1 rlineto
          272 vlineto
          hintmask 01011101
          82 -10 45 -47 9 -84 rrcurveto
          100 hlineto
          -12 143 -84 83 -140 12 rrcurveto
          hintmask 01101110
          86 -72 -57 callsubr
          13 -2 rlineto
          -269 vlineto
          hintmask 01011110
          -77 9 -44 40 -9 72 rrcurveto
          7 373 rmoveto
          78 45 50 78 11 vhcurveto
          -261 -3 vlineto
          -82 11 -38 39 72 vvcurveto
          195 -493 rmoveto
          259 vlineto
          80 -12 37 -39 -71 vvcurveto
          -77 -43 -49 -74 -11 vhcurveto
          endchar
        </CharString>
        <CharString name="dollar.bold">
          -100 181 -95 95 267.5 101 269.5 94 -94 181 -87 -20 21 -20 hstemhm
          101 100 123 72 117 100 -81 100 hintmask 0110001111000000
          -90 callsubr
          14 -132 82 -75 136 -11 rrcurveto
          hintmask 1010001111000000
          -86 72 vlineto
          hintmask 0111000111000000
          -58 callsubr
          -82 11 rlineto
          -82 11 -38 39 72 vvcurveto
          90 60 52 101 vhcurveto
          hintmask 0111000110100000
          -32 callsubr
          hintmask 0110001110100000
          -12 143 -84 83 -140 12 rrcurveto
          hintmask 0110100111000000
          86 -72 vlineto
          hintmask 0110010111000000
          -57 callsubr
          82 -11 rlineto
          82 -11 38 -39 -72 vvcurveto
          -89 -57 -51 -96 vhcurveto
          hintmask 0110001111000000
          -100 -56 41 82 -10 hvcurveto
          endchar
        </CharString>
        <CharString name="dotlessi">
          -99 callsubr
          hstem
          333 96 vstem
          151 -104 callsubr
          182 -418 -93 callsubr
          508 vlineto
          endchar
        </CharString>
        <CharString name="e">
          -15 88 195 86 171 88 hstem
          101 95 312 91 vstem
          101 304 rmoveto
          -203 97 -116 167 126 91 72 127 33 vhcurveto
          -95 hlineto
          -73 -25 -54 -38 -76 hhcurveto
          -101 -59 67 128 -9 hvcurveto
          401 hlineto
          1 13 1 16 15 vvcurveto
          192 -87 109 -151 -160 -100 -118 -191 vhcurveto
          97 50 rmoveto
          109 13 58 62 92 hhcurveto
          86 51 -60 -111 10 hvcurveto
          endchar
        </CharString>
        <CharString name="eight">
          -15 96 271 94 273 96 hstem
          79 101 340 101 -106 callsubr
          446 rmoveto
          -105 -65 52 85 84 65 52 105 105 65 -52 -84 -85 -65 -52 -105 hvcurveto
          -271 -238 rmoveto
          -139 103 -84 168 168 103 84 139 98 -54 67 -89 12 vhcurveto
          28 vlineto
          89 13 54 67 99 vvcurveto
          138 -103 85 -168 -168 -103 -85 -138 -99 54 -67 89 -13 vhcurveto
          -28 vlineto
          -89 -12 -54 -67 -98 vvcurveto
          101 8 rmoveto
          84 65 52 105 105 65 -52 -84 -83 -65 -52 -105 -105 -65 52 83 vhcurveto
          endchar
        </CharString>
        <CharString name="ellipsis">
          -8 172 hstem
          51 140 89 140 89 140 -106 callsubr
          -8 rmoveto
          45 25 31 55 55 -25 31 -45 -45 -25 -31 -55 -55 25 -31 45 hvcurveto
          -299 86 rmoveto
          -55 25 -31 45 -48 callsubr
          vhcurveto
          458 hmoveto
          -55 25 -31 45 -48 callsubr
          vhcurveto
          endchar
        </CharString>
        <CharString name="emdash">
          307 86 hstem
          45 610 vstem
          45 393 -30 callsubr
        </CharString>
        <CharString name="emdash.case">
          357 86 hstem
          45 610 vstem
          45 443 -30 callsubr
        </CharString>
        <CharString name="endash">
          307 86 hstem
          75 550 vstem
          75 393 -31 callsubr
        </CharString>
        <CharString name="endash.case">
          357 86 hstem
          75 550 vstem
          75 443 -31 callsubr
        </CharString>
        <CharString name="equal">
          170 -101 callsubr
          443 -56 callsubr
        </CharString>
        <CharString name="equal.case">
          220 -101 callsubr
          493 -56 callsubr
        </CharString>
        <CharString name="exclam">
          -7 148 659 -20 hstemhm
          271 158 -129 100 hintmask 11010000
          300 800 rmoveto
          -582 100 582 vlineto
          hintmask 11100000
          -129 -733 -61 callsubr
        </CharString>
        <CharString name="f">
          21 -21 508 90 175 90 hstem
          272 96 200 96 vstem
          368 hmoveto
          508 228 90 -228 69 vlineto
          69 34 37 64 61 34 -28 -55 7 vhcurveto
          96 hlineto
          110 -10 -72 63 -116 hhcurveto
          -124 -70 -71 -125 hvcurveto
          -69 -134 -90 134 -508 vlineto
          endchar
        </CharString>
        <CharString name="five">
          -15 96 263 109 -16 93 174 96 hstemhm
          122 100 300 102 hintmask 10111100
          122 -107 callsubr
          hintmask 11011100
          -456 90 vlineto
          hintmask 10111100
          58 25 56 35 70 hhcurveto
          100 59 -65 -110 -114 -60 -67 -102 -90 -60 58 99 -12 hvcurveto
          -107 hlineto
          -160 15 100 -93 154 hhcurveto
          166 98 102 175 169 -86 99 -145 -75 -53 -29 -48 -15 hvcurveto
          hintmask 11011100
          -28 251 386 96 hlineto
          endchar
        </CharString>
        <CharString name="four">
          21 -21 238 96 419 47 hstem
          67 81 269 99 vstem
          516 -107 callsubr
          -182 hlineto
          -267 -420 rlineto
          -142 350 -238 99 238 119 96 -119 vlineto
          -368 hmoveto
          269 419 rlineto
          -419 vlineto
          endchar
        </CharString>
        <CharString name="g">
          -215 90 156 89 404 74 -74 89 hstemhm
          83 98 303 96 -90 90 hintmask 11011100
          580 14 rmoveto
          hintmask 11101100
          584 -96 vlineto
          hintmask 11011100
          -77 -28 vlineto
          58 -18 -54 34 -75 hhcurveto
          -139 -87 -112 -179 -179 87 -112 139 75 54 34 58 18 hvcurveto
          28 -109 hlineto
          -88 -57 -51 -95 -83 -54 36 62 -10 vhcurveto
          -103 hlineto
          -116 12 96 -72 142 hhcurveto
          152 96 87 142 hvcurveto
          -399 308 rmoveto
          127 57 75 97 vhcurveto
          hintmask 11011010
          98 57 -74 -128 -128 -57 -74 -98 hvcurveto
          hintmask 11011100
          -97 -57 75 127 hvcurveto
          endchar
        </CharString>
        <CharString name="grave">
          -98 callsubr
          198 304 vstem
          198 -105 callsubr
          212 -264 rlineto
          92 hlineto
          -176 264 rlineto
          endchar
        </CharString>
        <CharString name="greater">
          39 -36 callsubr
          280 -68 callsubr
        </CharString>
        <CharString name="greater.case">
          89 -36 callsubr
          330 -68 callsubr
        </CharString>
        <CharString name="guillemotleft">
          54 592 hstemhm
          101 54 -54 264 -14 56 -56 224 hintmask 10100000
          365 54 rmoveto
          124 vlineto
          hintmask 11010000
          -210 173 rlineto
          hintmask 10100000
          210 174 rlineto
          121 vlineto
          hintmask 11010000
          -264 -228 rlineto
          -138 vlineto
          250 3 rmoveto
          hintmask 11001000
          224 -167 rlineto
          115 vlineto
          hintmask 11010000
          -168 120 rlineto
          hintmask 11001000
          168 122 rlineto
          111 vlineto
          hintmask 11010000
          -224 -169 rlineto
          endchar
        </CharString>
        <CharString name="guillemotright">
          54 592 hstemhm
          125 224 -56 56 -14 264 -54 54 hintmask 10010000
          335 54 rmoveto
          hintmask 10101000
          264 226 rlineto
          138 vlineto
          hintmask 10010000
          -264 228 rlineto
          -121 vlineto
          hintmask 10101000
          210 -174 rlineto
          hintmask 10010000
          -210 -173 rlineto
          hintmask 11001000
          -210 -62 rmoveto
          hintmask 10101000
          224 167 rlineto
          132 vlineto
          hintmask 11001000
          -224 169 rlineto
          -111 vlineto
          hintmask 10101000
          168 -122 rlineto
          hintmask 11001000
          -168 -120 rlineto
          endchar
        </CharString>
        <CharString name="h">
          21 -21 523 90 235 -20 hstem
          120 96 280 96 vstem
          120 -105 callsubr
          -848 96 361 vlineto
          105 49 57 91 91 49 -57 -105 vhcurveto
          -361 96 387 vlineto
          138 -77 88 -121 -76 -55 -35 -60 -19 vhcurveto
          -28 330 hlineto
          endchar
        </CharString>
        <CharString name="hyphen">
          -59 callsubr
        </CharString>
        <CharString name="hyphen.case">
          -60 callsubr
        </CharString>
        <CharString name="i">
          -99 callsubr
          92 153 hstemhm
          307 148 -122 96 hintmask 11001000
          151 -104 callsubr
          182 -418 -93 callsubr
          508 vlineto
          hintmask 11110000
          -122 168 -95 callsubr
          endchar
        </CharString>
        <CharString name="j">
          -215 88 635 90 92 153 hstemhm
          373 148 -122 96 hintmask 11001000
          135 -104 callsubr
          264 -527 vlineto
          -71 -35 -37 -64 -61 -35 28 53 -7 vhcurveto
          -94 hlineto
          -108 9 72 -61 116 hhcurveto
          124 71 71 125 hvcurveto
          617 vlineto
          hintmask 11110000
          -122 168 -95 callsubr
          endchar
        </CharString>
        <CharString name="k">
          21 -21 598 -20 270 -20 hstem
          154 96 vstem
          154 -105 callsubr
          -848 96 263 vlineto
          262 -263 rlineto
          127 hlineto
          -297 296 307 302 rlineto
          -121 hlineto
          -278 -277 rlineto
          527 vlineto
          endchar
        </CharString>
        <CharString name="l">
          0 90 668 90 hstem
          318 96 vstem
          136 -105 callsubr
          -90 182 -668 -93 callsubr
          758 vlineto
          endchar
        </CharString>
        <CharString name="less">
          39 -35 callsubr
          420 -67 callsubr
        </CharString>
        <CharString name="less.case">
          89 -35 callsubr
          470 -67 callsubr
        </CharString>
        <CharString name="m">
          21 -21 519 20 -20 24 -24 79 -79 94 hstemhm
          80 96 128 96 128 96 hintmask 10010111
          80 -84 callsubr
          vlineto
          hintmask 10001111
          429 vlineto
          60 21 30 43 43 21 -30 -60 vhcurveto
          -429 96 429 vlineto
          60 21 30 43 43 21 -30 -60 vhcurveto
          -429 96 452 vlineto
          104 -39 57 -72 vhcurveto
          hintmask 11000111
          -53 -35 -26 -48 -11 hvcurveto
          -28 hlineto
          hintmask 10001111
          48 -16 -33 26 -45 hhcurveto
          hintmask 10100111
          -46 -30 -24 -46 -10 hvcurveto
          -30 hlineto
          hintmask 10010111
          55 vlineto
          endchar
        </CharString>
        <CharString name="minus">
          -59 callsubr
        </CharString>
        <CharString name="minus.case">
          -60 callsubr
        </CharString>
        <CharString name="multiply">
          118 -92 callsubr
          118 -70 callsubr
        </CharString>
        <CharString name="multiply.case">
          168 -92 callsubr
          168 -70 callsubr
        </CharString>
        <CharString name="n">
          21 -21 523 75 -75 90 hstemhm
          120 96 280 96 hintmask 11011000
          120 -84 callsubr
          361 vlineto
          hintmask 10111000
          105 49 57 91 91 49 -57 -105 vhcurveto
          -361 96 387 vlineto
          138 -77 88 -121 -76 -55 -35 -60 -19 vhcurveto
          hintmask 11011000
          -28 80 hlineto
          endchar
        </CharString>
        <CharString name="nine">
          21 -21 293 79 347 96 hstem
          77 102 342 102 vstem
          351 815 rmoveto
          -165 -109 -107 -162 -147 96 -106 133 41 39 11 18 18 hvcurveto
          22 -16 -213 -306 rlineto
          120 hlineto
          210 312 rlineto
          54 78 26 74 82 vvcurveto
          162 -108 107 -164 vhcurveto
          -172 -269 rmoveto
          104 68 69 103 103 68 -69 -104 -105 -68 -69 -103 -103 -68 69 105 vhcurveto
          endchar
        </CharString>
        <CharString name="notequal">
          170 -101 callsubr
          443 -76 callsubr
        </CharString>
        <CharString name="notequal.case">
          220 -101 callsubr
          493 -76 callsubr
        </CharString>
        <CharString name="numbersign">
          21 -21 206 84 220 84 206 -20 hstem
          48 604 vstem
          361 -107 callsubr
          -80 -82 callsubr
          -139 -84 122 hlineto
          -43 -220 rlineto
          -133 -84 116 -47 callsubr
          135 -47 callsubr
          139 84 -122 hlineto
          43 220 rlineto
          133 84 -116 hlineto
          40 206 rlineto
          -80 -82 callsubr
          -135 hlineto
          -60 -304 rmoveto
          43 220 rlineto
          135 hlineto
          -43 -220 rlineto
          endchar
        </CharString>
        <CharString name="o">
          -78 callsubr
        </CharString>
        <CharString name="one">
          0 90 629 81 0 -20 hstemhm
          337 100 hintmask 10110000
          437 -107 callsubr
          -144 hlineto
          -183 -117 rlineto
          -118 vlineto
          hintmask 11010000
          227 154 rlineto
          -629 -227 -90 533 90 -206 vlineto
          endchar
        </CharString>
        <CharString name="p">
          -49 callsubr
          113 91 -91 96 325 98 hintmask 11100110
          396 613 rmoveto
          -82 -57 -36 -64 -20 hvcurveto
          hintmask 11010110
          -28 85 -96 -798 96 285 28 hlineto
          -64 20 57 -36 82 hhcurveto
          145 91 120 194 hvcurveto
          hintmask 11100110
          194 -91 120 -145 vhcurveto
          hintmask 11101010
          -192 -314 -65 callsubr
        </CharString>
        <CharString name="parenleft">
          -146 1052 hstem
          250 96 vstem
          550 820 rmoveto
          86 vlineto
          -188 -83 -113 -199 1 -244 2 -244 112 -199 186 -83 rrcurveto
          86 vlineto
          -130 73 -73 158 -1 209 -1 209 73 158 132 73 rrcurveto
          endchar
        </CharString>
        <CharString name="parenright">
          -146 1052 hstem
          354 96 vstem
          150 906 rmoveto
          -86 vlineto
          132 -73 73 -158 -1 -209 -1 -209 -73 -158 -130 -73 rrcurveto
          -86 vlineto
          186 83 112 199 2 244 1 244 -113 199 -188 83 rrcurveto
          endchar
        </CharString>
        <CharString name="percent">
          -64 callsubr
          hintmask 11111101
          49 143 rmoveto
          602 428 rlineto
          86 vlineto
          -602 -428 rlineto
          16 409 rmoveto
          -115 52 -63 94 95 52 63 115 114 -52 63 -95 -94 -52 -63 -114 vhcurveto
          85 hmoveto
          61 22 33 39 -33 callsubr
          -39 -22 33 62 vhcurveto
          hintmask 11111011
          192 -476 rmoveto
          -114 52 -63 95 94 52 63 114 115 -52 63 -94 -95 -52 -63 -115 vhcurveto
          85 hmoveto
          62 22 33 40 39 22 -33 -62 -61 -22 -33 -39 -40 -22 33 61 vhcurveto
          endchar
        </CharString>
        <CharString name="percent.cv01">
          -15 83 -47 -21 317 83 0 83 249 83 -15 -20 -46 callsubr
          hintmask 1010101011000000
          489 -15 rmoveto
          98 48 68 141 138 -48 68 -98 -99 -48 -68 -138 -141 48 -68 99 hvcurveto
          -424 621 rmoveto
          hintmask 0001101100000000
          -138 48 -68 98 99 48 68 138 141 -48 68 -99 vhcurveto
          hintmask 1010101011000000
          -98 -48 -68 -141 hvcurveto
          hintmask 0101101100000000
          30 -606 rmoveto
          79 hlineto
          137 340 rlineto
          -74 hlineto
          -87 266 rmoveto
          85 20 41 41 41 21 -41 -85 -82 -21 -41 -41 -41 -20 41 82 vhcurveto
          239 -146 rmoveto
          74 hlineto
          hintmask 1010010011000000
          142 340 rlineto
          -79 hlineto
          -99 -606 rmoveto
          82 21 41 41 41 20 -41 -82 -85 -20 -41 -41 -41 -21 41 85 vhcurveto
          endchar
        </CharString>
        <CharString name="percent.cv02">
          -64 callsubr
          hintmask 11111011
          489 -15 rmoveto
          94 52 63 114 115 -52 63 -94 -95 -52 -63 -115 -114 52 -63 95 hvcurveto
          -424 653 rmoveto
          -115 52 -63 94 vhcurveto
          hintmask 11111101
          95 52 63 115 114 -52 63 -95 hvcurveto
          hintmask 11111011
          -94 -52 -63 -114 hvcurveto
          36 -656 rmoveto
          498 721 rlineto
          115 vlineto
          -498 -721 rlineto
          49 541 rmoveto
          61 22 33 39 vhcurveto
          hintmask 11111101
          -33 callsubr
          hvcurveto
          hintmask 11111011
          -39 -22 33 62 hvcurveto
          277 -476 rmoveto
          62 22 33 40 39 22 -33 -62 -61 -22 -33 -39 -40 -22 33 61 vhcurveto
          endchar
        </CharString>
        <CharString name="period">
          -8 -41 callsubr
          -8 -96 callsubr
          endchar
        </CharString>
        <CharString name="plus">
          306 88 213 -20 hstem
          306 88 vstem
          93 306 rmoveto
          213 -213 88 213 213 88 -213 213 -88 -213 -213 hlineto
          endchar
        </CharString>
        <CharString name="plus.case">
          356 88 hstem
          306 88 vstem
          93 356 rmoveto
          213 -213 88 213 213 88 -213 213 -88 -213 -213 hlineto
          endchar
        </CharString>
        <CharString name="q">
          -49 callsubr
          68 98 325 96 -91 91 hintmask 11101100
          304 613 rmoveto
          -145 -91 -120 -194 -194 91 -120 145 82 57 36 64 20 hvcurveto
          28 -285 96 hlineto
          hintmask 11011100
          798 -96 vlineto
          hintmask 11101100
          -85 -28 vlineto
          64 -20 -57 36 -82 hhcurveto
          -138 -314 -87 callsubr
          vhcurveto
          hintmask 11101010
          -44 callsubr
          hintmask 11101100
          -29 callsubr
        </CharString>
        <CharString name="question">
          -7 148 578 96 hstem
          250 158 96 102 vstem
          277 218 rmoveto
          100 hlineto
          -2 170 231 -6 219 vvcurveto
          132 -96 82 -156 -160 -100 -86 -153 -18 vhcurveto
          107 hlineto
          91 9 62 52 100 hhcurveto
          93 57 -45 -73 -173 -229 21 2 -231 hvcurveto
          -27 -151 -61 callsubr
        </CharString>
        <CharString name="quotedbl">
          -98 callsubr
          195 92 126 92 vstem
          186 -50 callsubr
          108 hmoveto
          -40 callsubr
          endchar
        </CharString>
        <CharString name="quotedblbase">
          -8 172 hstem
          128 -86 callsubr
          211 -8 -79 callsubr
        </CharString>
        <CharString name="quotedblleft">
          494 172 hstem
          147 -86 callsubr
          489 666 rmoveto
          -9 -9 -1 -2 -8 hvcurveto
          -94 callsubr
          -76 29 -36 63 -103 callsubr
          vhcurveto
          -342 -60 rmoveto
          -76 29 -36 63 -103 callsubr
          -9 -9 -1 -2 -8 vhcurveto
          -94 callsubr
          endchar
        </CharString>
        <CharString name="quotedblright">
          726 172 hstem
          128 -86 callsubr
          211 726 -79 callsubr
        </CharString>
        <CharString name="quoteleft">
          494 172 hstem
          258 -81 callsubr
          666 rmoveto
          -9 -9 -1 -2 -8 hvcurveto
          -94 callsubr
          -76 29 -36 63 -103 callsubr
          vhcurveto
          endchar
        </CharString>
        <CharString name="quoteright">
          726 172 hstem
          267 -81 callsubr
          726 -97 callsubr
          endchar
        </CharString>
        <CharString name="quotesinglbase">
          -74 callsubr
        </CharString>
        <CharString name="quotesingle">
          -98 callsubr
          304 92 vstem
          295 -50 callsubr
          endchar
        </CharString>
        <CharString name="r">
          -99 callsubr
          -76 91 hstemhm
          232 96 201 101 hintmask 11011000
          97 -104 callsubr
          135 -418 -115 -90 404 90 -193 239 vlineto
          hintmask 10111000
          129 38 64 75 59 29 -37 -72 vhcurveto
          -73 101 88 vlineto
          117 -55 68 -95 -64 -41 -27 -55 -19 vhcurveto
          hintmask 11011000
          -28 67 hlineto
          endchar
        </CharString>
        <CharString name="s">
          -83 callsubr
          119 96 273 95 vstem
          210 182 rmoveto
          -95 hlineto
          -125 12 87 -72 141 hhcurveto
          142 86 69 114 97 -60 55 -125 20 hvcurveto
          -75 11 rlineto
          -76 11 -32 24 44 vvcurveto
          59 50 34 88 92 54 -42 -79 6 vhcurveto
          95 hlineto
          133 -8 -91 78 -147 hhcurveto
          -147 -88 -69 -115 -96 60 -56 126 -19 hvcurveto
          75 -11 rlineto
          75 -11 33 -25 -44 vvcurveto
          -58 -49 -34 -83 -85 -52 38 69 -9 vhcurveto
          endchar
        </CharString>
        <CharString name="section">
          -216 96 840 96 hstemhm
          121 102 -92 103 -74 102 176 102 -74 103 -92 102 hintmask 11001010
          466 607 rmoveto
          103 hlineto
          133 -12 -78 76 -124 hhcurveto
          -118 -77 -70 -108 -70 37 -49 67 -20 hvcurveto
          -28 vlineto
          hintmask 11100100
          -90 -24 -53 -63 -91 vvcurveto
          -104 75 -76 124 -23 vhcurveto
          77 -14 41 -40 -64 vvcurveto
          -56 -37 -36 -57 vhcurveto
          hintmask 11010100
          -64 -40 41 72 -6 hvcurveto
          -103 hlineto
          -133 12 78 -76 124 hhcurveto
          118 77 70 108 70 -37 49 -67 20 hvcurveto
          28 vlineto
          hintmask 11001001
          90 24 53 63 91 vvcurveto
          104 -75 76 -124 23 vhcurveto
          -77 14 -41 40 64 vvcurveto
          56 37 36 57 vhcurveto
          hintmask 11001010
          64 40 -41 -72 6 hvcurveto
          hintmask 11100001
          -243 -307 rmoveto
          69 48 43 79 79 48 -43 -69 -69 -48 -43 -79 -79 -48 43 69 vhcurveto
          endchar
        </CharString>
        <CharString name="semicolon">
          -8 172 -148 -21 439 172 hstemhm
          267 166 -166 175 hintmask 01110000
          350 434 -96 callsubr
          -95 -612 rmoveto
          hintmask 10101000
          -69 callsubr
          hintmask 01110000
          -34 callsubr
        </CharString>
        <CharString name="seven">
          21 -21 704 96 hstem
          518 76 vstem
          594 645 rmoveto
          155 -504 -96 428 vlineto
          -330 -704 rlineto
          109 hlineto
          endchar
        </CharString>
        <CharString name="six">
          -15 96 347 79 293 -20 hstem
          77 102 342 102 vstem
          349 -15 rmoveto
          165 109 107 162 147 -96 106 -133 -41 -39 -11 -18 -18 hvcurveto
          -22 16 213 306 rlineto
          -120 hlineto
          -210 -312 rlineto
          -54 -78 -26 -74 -82 vvcurveto
          -162 108 -107 164 vhcurveto
          -170 269 rmoveto
          105 68 69 103 103 68 -69 -105 -104 -68 -69 -103 -103 -68 69 104 vhcurveto
          endchar
        </CharString>
        <CharString name="slash">
          -37 callsubr
          571 -105 callsubr
          -95 hlineto
          -347 -1018 rlineto
          95 hlineto
          endchar
        </CharString>
        <CharString name="space">
          endchar
        </CharString>
        <CharString name="sterling">
          0 96 250 84 289 96 hstemhm
          100 37 -37 219 -171 101 -31 101 198 102 hintmask 11110010
          100 170 rmoveto
          -170 500 96 -463 vlineto
          124 34 58 66 103 vvcurveto
          16 -2 16 -3 15 vhcurveto
          175 84 hlineto
          hintmask 11100101
          -202 hlineto
          -19 46 -19 47 57 vvcurveto
          88 48 51 81 80 48 -56 -108 11 vhcurveto
          102 hlineto
          171 -14 -83 89 -144 hhcurveto
          -144 -86 -88 -147 -64 16 -46 16 -40 hvcurveto
          hintmask 11101000
          -80 -84 hlineto
          hintmask 11100010
          112 hlineto
          4 -15 2 -15 -17 vvcurveto
          hintmask 11110010
          -65 -38 -42 -80 -22 vhcurveto
          endchar
        </CharString>
        <CharString name="t">
          -15 90 433 90 hstem
          219 96 201 91 vstem
          315 750 rmoveto
          -96 -152 -136 -90 136 -315 hlineto
          -135 65 -73 121 120 70 77 144 12 vhcurveto
          -91 hlineto
          -88 -9 -35 -43 -63 hhcurveto
          -63 -31 39 79 hvcurveto
          315 273 90 -273 vlineto
          endchar
        </CharString>
        <CharString name="three">
          -15 96 273 94 271 96 hstemhm
          275 207 31 101 -98 102 hintmask 11111000
          614 213 rmoveto
          94 -50 66 -82 14 vhcurveto
          28 vlineto
          hintmask 11110100
          84 13 52 64 92 vvcurveto
          143 -98 88 -159 -168 -103 -93 -166 -16 vhcurveto
          106 hlineto
          104 13 66 59 102 hhcurveto
          96 59 -52 -86 -82 -56 -51 -93 hvcurveto
          -92 -94 92 hlineto
          hintmask 11111000
          91 55 -52 -85 -84 -60 -52 -99 -99 -61 55 98 -11 hvcurveto
          -104 hlineto
          -159 14 98 -90 163 hhcurveto
          162 98 86 142 hvcurveto
          endchar
        </CharString>
        <CharString name="two">
          0 96 623 96 hstem
          108 74 335 101 vstem
          393 375 rmoveto
          -285 -223 rlineto
          -152 495 96 -421 vlineto
          272 205 rlineto
          112 85 52 80 102 vvcurveto
          153 -95 94 -157 -162 -100 -93 -166 -16 vhcurveto
          107 hlineto
          104 14 61 59 96 hhcurveto
          94 57 -57 -94 -70 -40 -58 -84 -65 hvcurveto
          endchar
        </CharString>
        <CharString name="u">
          -15 90 -75 75 523 -20 hstemhm
          108 96 280 96 hintmask 01111000
          580 hmoveto
          598 -96 -361 vlineto
          hintmask 10111000
          -105 -49 -57 -91 -91 -49 57 105 vhcurveto
          361 -96 -387 vlineto
          -138 77 -88 121 76 55 35 60 19 vhcurveto
          hintmask 01111000
          28 -80 hlineto
          endchar
        </CharString>
        <CharString name="underscore">
          -121 71 hstem
          83 534 vstem
          83 -50 rmoveto
          -71 534 71 vlineto
          endchar
        </CharString>
        <CharString name="uni0237">
          -215 88 635 90 hstem
          399 96 vstem
          135 -104 callsubr
          264 -527 vlineto
          -71 -35 -37 -64 -61 -35 28 53 -7 vhcurveto
          -94 hlineto
          -108 9 72 -61 116 hhcurveto
          124 71 71 125 hvcurveto
          617 vlineto
          endchar
        </CharString>
        <CharString name="uni0306.cy">
          -107 880 68 hstem
          6 332 vstem
          92 1024 rmoveto
          -86 hlineto
          -90 8 62 -54 96 hhcurveto
          96 62 54 90 8 hvcurveto
          -86 hlineto
          -51 -3 -28 -25 -49 hhcurveto
          -49 -28 25 51 -3 hvcurveto
          endchar
        </CharString>
        <CharString name="uni0307">
          -107 692 153 hstem
          10 148 vstem
          84 692 rmoveto
          44 30 29 47 48 -30 29 -44 -44 -30 -29 -48 -47 30 -29 44 hvcurveto
          endchar
        </CharString>
        <CharString name="uni0308">
          -107 875 121 hstem
          -136 127 118 127 vstem
          -73 875 rmoveto
          40 24 22 38 38 -24 23 -40 -39 -24 -23 -38 -38 24 -22 39 hvcurveto
          182 60 rmoveto
          -38 24 -22 40 39 24 22 38 38 -24 23 -39 -40 -24 -23 -38 vhcurveto
          endchar
        </CharString>
        <CharString name="uni043D">
          21 -21 250 90 258 -20 hstem
          120 96 268 96 vstem
          120 -84 callsubr
          250 268 -250 96 598 -96 -258 -268 258 vlineto
          endchar
        </CharString>
        <CharString name="uni043E">
          -78 callsubr
        </CharString>
        <CharString name="uni2002">
          endchar
        </CharString>
        <CharString name="uni2003">
          endchar
        </CharString>
        <CharString name="uni20BD">
          21 -21 156 81 90 81 -81 89 288 96 hstemhm
          54 201 -96 96 293 102 hintmask 11011011
          397 -107 callsubr
          -238 hlineto
          hintmask 11101011
          -392 vlineto
          hintmask 11101101
          -105 hlineto
          hintmask 11011101
          -81 vlineto
          hintmask 11011011
          105 -90 hlineto
          hintmask 11011101
          -105 -81 hlineto
          hintmask 11011011
          105 -156 96 156 188 81 -188 90 142 hlineto
          157 96 89 148 147 -96 89 -157 hvcurveto
          -142 -384 rmoveto
          288 146 vlineto
          92 55 -54 -90 -89 -55 -55 -92 hvcurveto
          endchar
        </CharString>
        <CharString name="v">
          0 45 553 -20 hstem
          70 560 vstem
          70 598 rmoveto
          202 -598 rlineto
          156 hlineto
          202 598 rlineto
          -95 hlineto
          -182 -553 -182 553 rlineto
          endchar
        </CharString>
        <CharString name="w">
          0 58 -58 59 496 43 hstemhm
          35 630 hintmask 10110000
          35 598 rmoveto
          112 -598 rlineto
          136 hlineto
          68 555 67 -555 rlineto
          135 hlineto
          112 598 rlineto
          -97 hlineto
          hintmask 01110000
          -81 -539 -62 539 rlineto
          -143 hlineto
          hintmask 10110000
          -65 -540 -81 540 rlineto
          endchar
        </CharString>
        <CharString name="x">
          21 -21 598 -20 hstem
          79 542 vstem
          90 hmoveto
          102 hlineto
          156 252 153 -252 rlineto
          109 hlineto
          -183 294 194 304 rlineto
          -102 hlineto
          -170 -271 -162 271 rlineto
          -108 hlineto
          190 -312 rlineto
          endchar
        </CharString>
        <CharString name="y">
          -215 89 176 27 521 -20 hstem
          59 583 vstem
          59 598 rmoveto
          223 -548 rlineto
          80 hlineto
          -33 -103 rlineto
          -50 -15 -22 -23 -31 hhcurveto
          -34 -21 21 46 -11 hvcurveto
          -94 hlineto
          -101 13 57 -55 93 hhcurveto
          72 51 45 90 30 hvcurveto
          225 678 rlineto
          -104 hlineto
          -167 -521 -203 521 rlineto
          endchar
        </CharString>
        <CharString name="yen">
          0 213 -81 81 90 81 416 -20 hstemhm
          300 100 hintmask 01111000
          161 -107 callsubr
          -112 hlineto
          230 -416 rlineto
          -160 -81 181 -90 -181 -81 181 hlineto
          hintmask 10111000
          -132 100 vlineto
          hintmask 01111000
          132 181 81 -181 90 181 81 -160 vlineto
          230 416 -42 callsubr
        </CharString>
        <CharString name="z">
          -99 callsubr
          hstem
          129 48 347 47 vstem
          129 -104 callsubr
          395 vlineto
          -395 -341 rlineto
          -167 442 90 -394 vlineto
          394 341 rlineto
          167 vlineto
          endchar
        </CharString>
        <CharString name="zero">
          -77 callsubr
          84 55 -45 -95 27 vhcurveto
          -349 -265 rlineto
          -2 26 -1 27 30 vvcurveto
          20 -182 rmoveto
          349 264 rlineto
          2 -25 1 -28 -29 vvcurveto
          -89 callsubr
          -84 -54 45 95 -28 vhcurveto
          endchar
        </CharString>
</ttFont>
